<?xml version="1.0" encoding="UTF-8" standalone="no"?>
<!-- Created with Inkscape (http://www.inkscape.org/) -->

<svg
   width="512"
   height="512"
   viewBox="0 0 512 512"
   version="1.1"
   id="svg1"
   xmlns:xlink="http://www.w3.org/1999/xlink"
   xmlns="http://www.w3.org/2000/svg"
   xmlns:svg="http://www.w3.org/2000/svg">
  <defs
     id="defs1" />
  <g
     id="layer1"
     style="display:none">
    <use
       x="0"
       y="0"
       xlink:href="#path2"
       id="use3"
       transform="translate(0,95.99999)"
       style="fill:#ffffff;fill-opacity:1;stroke:none" />
    <ellipse
       style="fill:#ffffff;stroke-width:12.8;stroke-miterlimit:2.1;stroke-dashoffset:10.24"
       id="path1"
       cx="256"
       cy="224"
       rx="256"
       ry="160" />
    <ellipse
       style="fill:#ffffff;stroke:none;stroke-width:16.1493;stroke-miterlimit:2.1;stroke-dasharray:none;stroke-dashoffset:10.24;stroke-opacity:1"
       id="ellipse3"
       cx="256"
       cy="280.12674"
       rx="160"
       ry="88.12674" />
    <ellipse
       style="fill:#c6ffff;fill-opacity:1;stroke:none;stroke-width:15.747;stroke-miterlimit:2.1;stroke-dasharray:none;stroke-dashoffset:10.24;stroke-opacity:1"
       id="path2"
       cx="255.99997"
       cy="276"
       rx="152.12674"
       ry="88.12674" />
  </g>
  <g
     id="layer2"
     style="display:none">
    <g
       id="g5"
       transform="translate(0,64)">
      <path
         style="fill:none;stroke:#ffffff;stroke-width:16;stroke-linecap:round;stroke-miterlimit:2.1;stroke-dashoffset:10.24"
         d="M 64,384 H 448"
         id="path3" />
      <path
         style="fill:none;stroke:#ffffff;stroke-width:16;stroke-linecap:round;stroke-miterlimit:2.1;stroke-dashoffset:10.24"
         d="M 128,416 H 384"
         id="path4" />
    </g>
    <g
       id="g6"
       transform="translate(-13.866669,-19.626663)">
      <ellipse
         style="fill:none;stroke:#ffffff;stroke-width:16;stroke-linecap:round;stroke-miterlimit:2.1;stroke-dashoffset:10.24"
         id="path5"
         cx="269.86667"
         cy="243.62666"
         rx="224"
         ry="192" />
    </g>
    <path
       style="fill:none;stroke:#ffffff;stroke-width:16;stroke-linecap:round;stroke-miterlimit:2.1;stroke-dashoffset:10.24"
       d="M 161.70667,86.613333 256,240 441.17333,225.28"
       id="path6" />
  </g>
  <g
     id="layer3">
    <circle
       style="fill:#ffffff;fill-opacity:1;stroke:none;stroke-width:21.1257;stroke-linecap:round;stroke-miterlimit:2.1;stroke-dashoffset:10.24"
       id="ellipse7"
       cx="256"
       cy="256"
       r="256" />
    <path
       style="fill:#e17f00;fill-opacity:1;stroke:none;stroke-width:15.8444;stroke-linecap:round;stroke-miterlimit:2.1;stroke-dashoffset:10.24;stroke-opacity:1"
       id="path7"
       d="M 256,448 A 192,192 0 0 1 70.542242,305.69326 192,192 0 0 1 160,89.723123 L 256,256 Z" />
    <path
       style="fill:#3b7f00;fill-opacity:1;stroke:none;stroke-width:15.8444;stroke-linecap:round;stroke-miterlimit:2.1;stroke-dashoffset:10.24;stroke-opacity:1"
       id="path8"
       d="m 160,89.723123 a 192,192 0 0 1 192,-10e-7 A 192,192 0 0 1 448,256 H 256 Z" />
    <path
       style="fill:#ca0000;fill-opacity:1;stroke:none;stroke-width:15.8444;stroke-linecap:round;stroke-miterlimit:2.1;stroke-dashoffset:10.24;stroke-opacity:1"
       id="path10"
       d="M 448,256 A 192,192 0 0 1 256,448 V 256 Z" />
    <path
       style="fill:none;fill-opacity:1;stroke:#ffffff;stroke-width:16;stroke-linecap:round;stroke-miterlimit:2.1;stroke-dashoffset:10.24;stroke-opacity:1"
       d="M 464,256 H 256"
       id="path9" />
    <use
       x="0"
       y="0"
       xlink:href="#path9"
       id="use9"
       transform="rotate(90,256,256)" />
    <use
       x="0"
       y="0"
       xlink:href="#path9"
       id="use10"
       transform="rotate(-120,256,256)" />
  </g>
</svg>
